<svg width="1614" height="1158" viewBox="0 0 1614 1158" fill="none" xmlns="http://www.w3.org/2000/svg">
<g clip-path="url(#clip0_2_3)">
<rect width="1614" height="1158" fill="white" fill-opacity="0.65"/>
<g filter="url(#filter0_f_2_3)">
<path fill-rule="evenodd" clip-rule="evenodd" d="M150.044 529.42C192.385 502.153 254.365 493.905 298.77 517.664C345.683 542.765 344.726 612.978 380.247 652.591C408.377 683.963 457.353 689.94 483.134 723.269C510.639 758.826 546.256 805.226 531.036 847.523C513.637 895.874 430.495 889.875 406.779 935.461C384.425 978.429 436.227 1037.75 410.668 1078.89C387.696 1115.87 332.594 1131.67 289.775 1123.81C244.319 1115.46 229.407 1044.25 183.729 1037.21C133.08 1029.42 86.6362 1105.97 39.739 1085.31C-1.14069 1067.3 4.96118 1002.61 3.7938 957.953C2.81222 920.405 30.5106 888.185 33.6072 850.753C36.3607 817.468 13.7659 785.304 20.7778 752.65C28.2071 718.053 56.3265 692.996 74.0589 662.374C99.9632 617.64 106.583 557.408 150.044 529.42Z" fill="#FF6D03" fill-opacity="0.58"/>
</g>
<g filter="url(#filter1_f_2_3)">
<path fill-rule="evenodd" clip-rule="evenodd" d="M250.369 32.4338C283.726 39.8587 317.09 51.1423 341.738 74.5302C364.147 95.7933 359.821 133.784 380.922 156.312C411.061 188.491 488.042 186.871 488 230.687C487.958 274.527 412.107 273.895 380.78 304.982C359.907 325.695 359.078 359.712 337.661 379.877C313.157 402.947 282.371 416.82 250.369 427.762C207.519 442.415 156.934 479.638 119.412 454.505C80.7179 428.588 111.977 362.693 91.3751 321.266C72.8603 284.036 10.9113 272.066 8.10534 230.687C5.35064 190.065 57.3505 167.73 78.5969 132.829C99.369 98.7077 96.9298 48.0498 131.637 27.7643C166.307 7.50089 211.062 23.6844 250.369 32.4338Z" fill="#B4F8C8" fill-opacity="0.79"/>
</g>
<g filter="url(#filter2_f_2_3)">
<path fill-rule="evenodd" clip-rule="evenodd" d="M660.567 204.061C697.74 229.194 691.541 281.253 717.505 316.018C735.217 339.734 769.145 349.04 786.646 372.879C807.519 401.312 825.141 432.454 827.534 465.895C830.258 503.955 830.559 548.461 801.066 574.362C771.441 600.378 719.037 582.824 679.88 595.563C637.64 609.305 605.857 668.706 563.549 651.634C517.097 632.89 541.408 560.524 507.375 525.953C479.032 497.162 418.052 510.643 393.679 479.076C369.88 448.252 365.373 400.547 387.33 370.475C410.626 338.571 479.745 359.982 503.652 328.465C533.558 289.038 486.863 218.394 526.561 186.921C560.114 160.319 623.208 178.803 660.567 204.061Z" fill="#FFAEBC" fill-opacity="0.79"/>
</g>
<g filter="url(#filter3_f_2_3)">
<path fill-rule="evenodd" clip-rule="evenodd" d="M1162.58 722.705C1183.04 771.412 1188.51 828.828 1163.26 877.833C1138.22 926.421 1087.44 970.515 1028.89 982.159C972.484 993.378 929.126 934.184 871.869 935.785C818.866 937.267 778.69 993.714 726.039 990.625C666.458 987.131 601.403 964.242 574.296 918.33C547.186 872.412 559.685 809.159 591.665 763.032C621.014 720.699 689.893 719.713 733.709 688.394C763.724 666.94 772.533 628.758 805.064 610.495C841.994 589.763 884.94 577.801 927.556 579.568C974.447 581.512 1017.5 597.832 1055.33 620.871C1099.52 647.783 1143.8 677.993 1162.58 722.705Z" fill="#E6C5D8" fill-opacity="0.79"/>
</g>
<g filter="url(#filter4_f_2_3)">
<path fill-rule="evenodd" clip-rule="evenodd" d="M985.004 -15.7635C1052.81 -26.5427 1123.21 -75.7503 1183.82 -45.0672C1244.1 -14.5507 1266.73 62.3524 1267 126.992C1267.23 184.083 1201.04 219.997 1185.13 275.072C1167.8 335.057 1218.67 413.003 1171.78 456.614C1126.27 498.939 1045.81 479.594 985.004 461.2C934.693 445.981 912.905 392.26 868.696 364.929C820.646 335.225 741.469 345.072 717.431 295.787C693.747 247.23 741.654 195.032 761.388 144.923C780.098 97.4171 786.794 41.9411 829.485 11.2642C872.499 -19.6445 931.721 -7.29275 985.004 -15.7635Z" fill="#FBE7C6"/>
</g>
<g filter="url(#filter5_f_2_3)">
<path fill-rule="evenodd" clip-rule="evenodd" d="M1512.77 324.31C1537.5 358.055 1542.32 400.324 1558.21 439.032C1577.49 485.979 1632.01 528.494 1616.45 576.882C1600.83 625.5 1524.68 620.281 1488.39 656.255C1450.45 693.872 1450.37 764.067 1402.91 788.585C1355.39 813.131 1289.97 811.249 1245.51 781.723C1200.63 751.922 1211.47 679.72 1176.85 638.457C1145.05 600.55 1056.83 605.746 1056.3 556.212C1055.71 500.728 1138.92 485.484 1174.76 443.034C1193.99 420.269 1203.44 392.531 1216.93 365.971C1237.99 324.482 1237.68 267.935 1276.6 242.427C1314.87 217.347 1368.19 223.599 1411.35 238.561C1453.92 253.322 1486.16 287.977 1512.77 324.31Z" fill="#A0E7E5" fill-opacity="0.71"/>
</g>
</g>
<defs>
<filter id="filter0_f_2_3" x="-196.232" y="303.684" width="930.914" height="1022.1" filterUnits="userSpaceOnUse" color-interpolation-filters="sRGB">
<feFlood flood-opacity="0" result="BackgroundImageFix"/>
<feBlend mode="normal" in="SourceGraphic" in2="BackgroundImageFix" result="shape"/>
<feGaussianBlur stdDeviation="100" result="effect1_foregroundBlur_2_3"/>
</filter>
<filter id="filter1_f_2_3" x="-192" y="-182" width="880" height="845" filterUnits="userSpaceOnUse" color-interpolation-filters="sRGB">
<feFlood flood-opacity="0" result="BackgroundImageFix"/>
<feBlend mode="normal" in="SourceGraphic" in2="BackgroundImageFix" result="shape"/>
<feGaussianBlur stdDeviation="100" result="effect1_foregroundBlur_2_3"/>
</filter>
<filter id="filter2_f_2_3" x="173.106" y="-26.086" width="855.593" height="880.776" filterUnits="userSpaceOnUse" color-interpolation-filters="sRGB">
<feFlood flood-opacity="0" result="BackgroundImageFix"/>
<feBlend mode="normal" in="SourceGraphic" in2="BackgroundImageFix" result="shape"/>
<feGaussianBlur stdDeviation="100" result="effect1_foregroundBlur_2_3"/>
</filter>
<filter id="filter3_f_2_3" x="359.445" y="379.396" width="1020.69" height="811.351" filterUnits="userSpaceOnUse" color-interpolation-filters="sRGB">
<feFlood flood-opacity="0" result="BackgroundImageFix"/>
<feBlend mode="normal" in="SourceGraphic" in2="BackgroundImageFix" result="shape"/>
<feGaussianBlur stdDeviation="100" result="effect1_foregroundBlur_2_3"/>
</filter>
<filter id="filter4_f_2_3" x="511" y="-255" width="956" height="937" filterUnits="userSpaceOnUse" color-interpolation-filters="sRGB">
<feFlood flood-opacity="0" result="BackgroundImageFix"/>
<feBlend mode="normal" in="SourceGraphic" in2="BackgroundImageFix" result="shape"/>
<feGaussianBlur stdDeviation="100" result="effect1_foregroundBlur_2_3"/>
</filter>
<filter id="filter5_f_2_3" x="856.296" y="25.4647" width="962.913" height="980.099" filterUnits="userSpaceOnUse" color-interpolation-filters="sRGB">
<feFlood flood-opacity="0" result="BackgroundImageFix"/>
<feBlend mode="normal" in="SourceGraphic" in2="BackgroundImageFix" result="shape"/>
<feGaussianBlur stdDeviation="100" result="effect1_foregroundBlur_2_3"/>
</filter>
<clipPath id="clip0_2_3">
<rect width="1614" height="1158" fill="white"/>
</clipPath>
</defs>
</svg>
