<svg width="3840" height="2160" viewBox="0 0 3840 2160" fill="none" xmlns="http://www.w3.org/2000/svg">
<g clip-path="url(#clip0_65_10)">
<rect width="3840" height="2160" fill="white"/>
<g filter="url(#filter0_f_65_10)">
<path fill-rule="evenodd" clip-rule="evenodd" d="M3775.76 537.621C3789.85 602.254 3772.03 665.342 3771.27 730.958C3770.35 810.539 3819.81 907.95 3770.81 965.762C3721.58 1023.85 3621.26 964.407 3551.29 990.484C3478.11 1017.75 3437.54 1116.99 3359 1119.22C3280.37 1121.46 3192.69 1074.07 3149.38 1001.91C3105.68 929.077 3162.01 834.358 3138.83 752.324C3117.53 676.96 2994.84 624 3022.68 553.573C3053.87 474.687 3175.57 510.015 3248.68 474.474C3287.88 455.413 3316.71 422.643 3350.32 394.291C3402.81 350.005 3435 269.809 3502.52 260.338C3568.91 251.026 3637.65 296.321 3687.58 346.986C3736.84 396.973 3760.59 468.03 3775.76 537.621Z" fill="#A0E7E5" fill-opacity="0.71"/>
</g>
<g filter="url(#filter1_f_65_10)">
<path fill-rule="evenodd" clip-rule="evenodd" d="M2416.74 -48.5872C2548.33 -67.6565 2684.95 -154.709 2802.57 -100.428C2919.56 -46.4417 2963.48 89.6067 2964 203.96C2964.45 304.958 2836 368.494 2805.12 465.926C2771.5 572.046 2870.21 709.939 2779.21 787.09C2690.9 861.966 2534.74 827.743 2416.74 795.203C2319.11 768.279 2276.83 673.242 2191.03 624.892C2097.78 572.343 1944.13 589.761 1897.48 502.573C1851.52 416.672 1944.49 324.329 1982.79 235.681C2019.09 151.639 2032.09 53.4973 2114.94 -0.772873C2198.41 -55.4531 2313.34 -33.6017 2416.74 -48.5872Z" fill="#FBE7C6"/>
</g>
<g filter="url(#filter2_f_65_10)">
<path fill-rule="evenodd" clip-rule="evenodd" d="M3796.57 1626.03C3829.81 1702.15 3837.78 1792.25 3794.49 1869.78C3751.56 1946.65 3665.62 2016.98 3567.34 2036.49C3472.66 2055.28 3401.28 1963.17 3305.37 1966.87C3216.59 1970.29 3148.15 2059.82 3060.05 2056.06C2960.36 2051.8 2851.9 2017.18 2807.46 1945.59C2763.01 1874 2785.25 1774.35 2839.75 1701.21C2889.77 1634.08 3005.13 1631.11 3079.14 1580.99C3129.84 1546.65 3145.39 1486.47 3200.23 1457.1C3262.5 1423.76 3334.66 1404.08 3405.98 1405.97C3484.46 1408.06 3556.22 1432.81 3619.08 1468.23C3692.52 1509.61 3766.04 1556.16 3796.57 1626.03Z" fill="#E6C5D8" fill-opacity="0.79"/>
</g>
<g filter="url(#filter3_f_65_10)">
<path fill-rule="evenodd" clip-rule="evenodd" d="M900.367 2020.56C862.591 1946.73 860.628 1844.15 909.191 1775.8C960.499 1703.59 1078.57 1717.32 1152.13 1666.21C1210.38 1625.74 1229.88 1546.85 1290.97 1510.55C1356.15 1471.82 1441.16 1421.74 1509.47 1453.9C1587.56 1490.68 1561.45 1625.32 1633.67 1671.92C1701.74 1715.85 1811.62 1641.59 1876 1690.43C1933.86 1734.32 1949.87 1826.98 1928.38 1895.5C1905.57 1968.24 1782.76 1980.24 1762.12 2053.56C1739.24 2134.87 1859.23 2223.93 1815.41 2296.88C1777.21 2360.47 1669.43 2339.31 1593.99 2333.48C1530.56 2328.57 1481.62 2277.79 1419.17 2266.25C1363.64 2255.99 1305.12 2287.29 1251.47 2270.19C1194.63 2252.07 1157.84 2201.84 1109.67 2167.6C1039.31 2117.57 939.142 2096.33 900.367 2020.56Z" fill="#FF6D03" fill-opacity="0.5"/>
</g>
<g filter="url(#filter4_f_65_10)">
<path fill-rule="evenodd" clip-rule="evenodd" d="M1654.4 389.91C1712.81 472.746 1661.15 564.992 1689.13 655.301C1708.21 716.907 1771.69 766.808 1790.24 828.445C1812.38 901.96 1825.74 977.483 1805.78 1042.82C1783.08 1117.18 1750.53 1201.38 1670.03 1222.09C1589.16 1242.89 1493.49 1159.82 1402.73 1146.5C1304.83 1132.13 1194.61 1213.82 1119.53 1141.29C1037.09 1061.65 1141.47 948.39 1096.61 850.753C1059.24 769.439 922.645 736.707 895.587 653.945C869.167 573.131 895.363 478.886 963.342 443.124C1035.46 405.185 1162.95 511.468 1236.05 474.839C1327.49 429.019 1283.23 251.292 1389.07 229.805C1478.53 211.645 1595.69 306.662 1654.4 389.91Z" fill="#FFAEBC" fill-opacity="0.79"/>
</g>
<g filter="url(#filter5_f_65_10)">
<path fill-rule="evenodd" clip-rule="evenodd" d="M2505.33 1004.09C2573.37 1019.06 2641.41 1041.81 2691.69 1088.95C2737.39 1131.81 2728.57 1208.39 2771.6 1253.8C2833.08 1318.66 2990.09 1315.4 2990 1403.72C2989.91 1492.09 2835.21 1490.81 2771.32 1553.48C2728.74 1595.23 2727.05 1663.8 2683.37 1704.45C2633.39 1750.95 2570.6 1778.91 2505.33 1800.97C2417.94 1830.51 2314.76 1905.54 2238.23 1854.88C2159.31 1802.63 2223.07 1669.81 2181.05 1586.3C2143.29 1511.26 2016.94 1487.13 2011.21 1403.72C2005.6 1321.84 2111.65 1276.82 2154.99 1206.47C2197.35 1137.68 2192.38 1035.57 2263.17 994.682C2333.88 953.837 2425.16 986.458 2505.33 1004.09Z" fill="#B4F8C8" fill-opacity="0.79"/>
</g>
<g filter="url(#filter6_f_65_10)">
<path fill-rule="evenodd" clip-rule="evenodd" d="M601.361 23.5384C685.038 29.1784 733.205 133.553 760.013 221.647C783.575 299.071 755.903 386.117 737.214 469.96C722.074 537.882 687.252 594.602 662.364 659.724C624.941 757.648 636.899 893.917 554.863 947.103C475.693 998.432 380.671 939.129 310.371 887.933C250.57 844.382 245.2 749.157 199.128 688.036C144.421 615.459 33.0452 596.451 17.5728 499.492C1.85013 400.965 47.7859 277.935 123.583 214.631C197.783 152.662 295.575 230.2 380.856 196.091C465.681 162.164 514.954 17.7144 601.361 23.5384Z" fill="#ACD5FA" fill-opacity="0.8"/>
</g>
<g filter="url(#filter7_f_65_10)">
<path fill-rule="evenodd" clip-rule="evenodd" d="M676.186 1875.16C724.507 1949.91 695.612 2056.95 645.711 2143.9C602.771 2218.72 517.144 2260.72 434.178 2296.83C363.751 2327.48 292.859 2332.3 219.951 2329.18C127.462 2325.23 16.5191 2341.69 -34.7834 2276.8C-88.7103 2208.59 -78.9454 2100.05 -27.1481 2016.64C19.0019 1942.33 123.146 1931.85 204.866 1890.9C277.852 1854.33 340.62 1795.72 418.945 1793.11C517.914 1789.8 628.861 1801.95 676.186 1875.16Z" fill="#D97CCA" fill-opacity="0.54"/>
</g>
<g filter="url(#filter8_f_65_10)">
<path fill-rule="evenodd" clip-rule="evenodd" d="M517.809 1117.1C622.772 1112.26 724.247 1006.48 809.646 1049.09C894.86 1091.61 788.611 1190.72 808.605 1262.2C824.599 1319.38 932.802 1360.19 912.465 1416.7C892.278 1472.8 782.024 1481.74 716.687 1517.64C647.112 1555.87 604.406 1620.06 517.809 1633.55C423.479 1648.24 300.875 1644.55 241.375 1591.69C180.122 1537.27 273.22 1455.47 243.27 1389.63C213.8 1324.84 73.9477 1296.09 76.0229 1228.17C78.0728 1161.07 161.933 1097.66 252.888 1074.79C340.22 1052.84 425.124 1121.38 517.809 1117.1Z" fill="#D3FDC5"/>
</g>
</g>
<defs>
<filter id="filter0_f_65_10" x="2718.59" y="-40.8853" width="1373.92" height="1460.18" filterUnits="userSpaceOnUse" color-interpolation-filters="sRGB">
<feFlood flood-opacity="0" result="BackgroundImageFix"/>
<feBlend mode="normal" in="SourceGraphic" in2="BackgroundImageFix" result="shape"/>
<feGaussianBlur stdDeviation="150" result="effect1_foregroundBlur_65_10"/>
</filter>
<filter id="filter1_f_65_10" x="1585" y="-418" width="1679" height="1550" filterUnits="userSpaceOnUse" color-interpolation-filters="sRGB">
<feFlood flood-opacity="0" result="BackgroundImageFix"/>
<feBlend mode="normal" in="SourceGraphic" in2="BackgroundImageFix" result="shape"/>
<feGaussianBlur stdDeviation="150" result="effect1_foregroundBlur_65_10"/>
</filter>
<filter id="filter2_f_65_10" x="2483.77" y="1105.85" width="1640.51" height="1250.32" filterUnits="userSpaceOnUse" color-interpolation-filters="sRGB">
<feFlood flood-opacity="0" result="BackgroundImageFix"/>
<feBlend mode="normal" in="SourceGraphic" in2="BackgroundImageFix" result="shape"/>
<feGaussianBlur stdDeviation="150" result="effect1_foregroundBlur_65_10"/>
</filter>
<filter id="filter3_f_65_10" x="572.351" y="1143.62" width="1665.16" height="1497.94" filterUnits="userSpaceOnUse" color-interpolation-filters="sRGB">
<feFlood flood-opacity="0" result="BackgroundImageFix"/>
<feBlend mode="normal" in="SourceGraphic" in2="BackgroundImageFix" result="shape"/>
<feGaussianBlur stdDeviation="150" result="effect1_foregroundBlur_65_10"/>
</filter>
<filter id="filter4_f_65_10" x="585.459" y="-72.4497" width="1530.09" height="1597.87" filterUnits="userSpaceOnUse" color-interpolation-filters="sRGB">
<feFlood flood-opacity="0" result="BackgroundImageFix"/>
<feBlend mode="normal" in="SourceGraphic" in2="BackgroundImageFix" result="shape"/>
<feGaussianBlur stdDeviation="150" result="effect1_foregroundBlur_65_10"/>
</filter>
<filter id="filter5_f_65_10" x="1711" y="675" width="1579" height="1497" filterUnits="userSpaceOnUse" color-interpolation-filters="sRGB">
<feFlood flood-opacity="0" result="BackgroundImageFix"/>
<feBlend mode="normal" in="SourceGraphic" in2="BackgroundImageFix" result="shape"/>
<feGaussianBlur stdDeviation="150" result="effect1_foregroundBlur_65_10"/>
</filter>
<filter id="filter6_f_65_10" x="-285.503" y="-276.633" width="1354.58" height="1543.45" filterUnits="userSpaceOnUse" color-interpolation-filters="sRGB">
<feFlood flood-opacity="0" result="BackgroundImageFix"/>
<feBlend mode="normal" in="SourceGraphic" in2="BackgroundImageFix" result="shape"/>
<feGaussianBlur stdDeviation="150" result="effect1_foregroundBlur_65_10"/>
</filter>
<filter id="filter7_f_65_10" x="-370.879" y="1492.62" width="1371.85" height="1137.38" filterUnits="userSpaceOnUse" color-interpolation-filters="sRGB">
<feFlood flood-opacity="0" result="BackgroundImageFix"/>
<feBlend mode="normal" in="SourceGraphic" in2="BackgroundImageFix" result="shape"/>
<feGaussianBlur stdDeviation="150" result="effect1_foregroundBlur_65_10"/>
</filter>
<filter id="filter8_f_65_10" x="-224" y="739" width="1439" height="1202" filterUnits="userSpaceOnUse" color-interpolation-filters="sRGB">
<feFlood flood-opacity="0" result="BackgroundImageFix"/>
<feBlend mode="normal" in="SourceGraphic" in2="BackgroundImageFix" result="shape"/>
<feGaussianBlur stdDeviation="150" result="effect1_foregroundBlur_65_10"/>
</filter>
<clipPath id="clip0_65_10">
<rect width="3840" height="2160" fill="white"/>
</clipPath>
</defs>
</svg>
